<?xml version="1.0" encoding="UTF-8" standalone="no"?> <svg id="Layer_1" data-name="Layer 1" xmlns="http://www.w3.org/2000/svg" viewBox="0 0 110 110"><path d="M89.38,93.89H54.29A31.85,31.85,0,0,1,43.34,92l-5.82-2.1a1,1,0,0,1-.65-.94V42a1,1,0,0,1,.42-.82L52.23,30.76A42.13,42.13,0,0,0,64,18.43L65,16.68A8.48,8.48,0,0,1,80.52,23c-1.39,6.33-4.91,12.11-8.31,17.7l-1.64,2.7H95.94a7.06,7.06,0,0,1,2.27,13.75A7.06,7.06,0,0,1,96,69.25a7.05,7.05,0,0,1-2.17,12.12,7.06,7.06,0,0,1-4.48,12.52ZM38.87,88.22,44,90.08a29.9,29.9,0,0,0,10.27,1.81H89.38a5.07,5.07,0,0,0,0-10.13h-9a1,1,0,0,1,0-2H91.55a5.06,5.06,0,0,0,0-10.12h-9a1,1,0,0,1,0-2H93.71a5.07,5.07,0,0,0,0-10.13h-9a1,1,0,0,1,0-2H95.94a5.06,5.06,0,1,0,0-10.12H68.82a1,1,0,0,1-.86-1.5c.81-1.4,1.67-2.81,2.54-4.24,3.32-5.45,6.75-11.08,8.06-17.09a6.48,6.48,0,0,0-11.82-4.82l-1.09,1.75A44.19,44.19,0,0,1,53.37,32.4L38.87,42.51Z"/><path d="M34.8,92.8H26.21a1,1,0,0,1-1-1v-51a1,1,0,0,1,1-1H34.8a4.07,4.07,0,0,1,4.06,4.07V88.74A4.06,4.06,0,0,1,34.8,92.8Zm-7.59-2H34.8a2.06,2.06,0,0,0,2.06-2.06V43.85a2.07,2.07,0,0,0-2.06-2.07H27.21Z"/><path d="M22.49,97.31H10.09A3.08,3.08,0,0,1,7,94.23V38.36a3.09,3.09,0,0,1,3.09-3.09h12.4A4.73,4.73,0,0,1,27.21,40V92.59A4.73,4.73,0,0,1,22.49,97.31Zm-12.4-60A1.09,1.09,0,0,0,9,38.36V94.23a1.09,1.09,0,0,0,1.09,1.08h12.4a2.72,2.72,0,0,0,2.72-2.72V40a2.72,2.72,0,0,0-2.72-2.73Z"/></svg>